<?xml version="1.0" standalone="no"?>
<!DOCTYPE svg PUBLIC "-//W3C//DTD SVG 20010904//EN"
 "http://www.w3.org/TR/2001/REC-SVG-20010904/DTD/svg10.dtd">
<svg version="1.0" xmlns="http://www.w3.org/2000/svg"
 width="300.000000pt" height="275.000000pt" viewBox="0 0 300.000000 275.000000"
 preserveAspectRatio="xMidYMid meet">
<metadata>
Created by potrace 1.10, written by Peter Selinger 2001-2011
</metadata>
<g transform="translate(0.000000,275.000000) scale(0.100000,-0.100000)"
fill="#D10000" stroke="none">
<path d="M1292 2648 c-28 -135 -35 -235 -22 -335 12 -95 43 -203 59 -203 5 0
0 35 -11 78 -22 93 -38 349 -20 338 7 -4 12 -21 12 -38 0 -58 31 -140 69 -182
39 -42 131 -176 146 -211 7 -18 9 -18 12 -3 5 20 -94 193 -127 223 -50 45 -90
185 -90 316 0 38 -4 69 -8 69 -5 0 -14 -24 -20 -52z"/>
<path d="M830 2463 c0 -3 18 -43 39 -87 60 -122 161 -268 198 -287 31 -16 29
-16 -110 -21 -145 -6 -159 -9 -306 -69 -38 -16 -18 -21 31 -8 37 10 70 9 179
-4 74 -9 155 -18 179 -18 25 -1 -7 -5 -70 -10 -252 -17 -461 -138 -606 -353
-71 -105 -101 -275 -84 -472 17 -193 31 -243 117 -414 68 -136 86 -163 148
-225 165 -165 532 -361 768 -409 80 -17 240 -20 317 -7 33 6 12 8 -75 7 -94 0
-138 5 -205 22 -204 55 -399 142 -570 254 -207 135 -254 185 -359 383 -90 168
-103 214 -109 386 -7 224 19 362 91 469 17 25 67 81 111 125 94 93 192 150
326 188 92 26 284 43 322 28 80 -31 108 -45 108 -56 0 -7 -16 -51 -35 -98 -54
-135 -73 -218 -66 -292 1 -6 50 37 110 96 170 166 260 221 398 244 34 5 50 2
77 -14 49 -31 181 -68 268 -76 75 -7 205 2 193 13 -3 3 -37 14 -77 24 -85 21
-158 54 -215 97 -44 32 -54 51 -29 51 8 0 27 6 43 14 15 8 43 20 61 27 31 11
333 299 314 299 -4 0 -49 -22 -98 -48 -50 -27 -115 -59 -145 -71 -49 -22 -333
-111 -352 -111 -4 0 15 44 42 98 62 124 66 136 46 156 -26 25 -115 19 -115 -8
0 -11 -123 -198 -147 -224 -15 -16 -27 -52 -19 -59 3 -4 7 -4 9 -2 22 28 120
175 140 209 25 44 28 45 67 42 22 -2 40 -6 40 -8 0 -3 -20 -44 -44 -92 -24
-48 -52 -113 -62 -144 -20 -64 -26 -67 -94 -43 -23 8 -48 15 -54 15 -22 -1 30
-31 78 -45 59 -18 76 -8 95 55 10 33 16 40 37 40 66 0 321 82 424 137 l65 34
-100 -96 c-94 -91 -206 -165 -249 -165 -26 0 -29 -21 -7 -44 35 -37 174 -116
222 -125 l44 -9 -48 -1 c-77 -2 -245 36 -311 70 -49 25 -65 29 -105 24 -78
-11 -143 -36 -212 -81 -65 -43 -242 -209 -266 -249 -27 -44 0 72 48 209 27 77
49 145 49 151 0 16 -71 63 -123 81 -23 9 -94 20 -157 25 -63 5 -144 13 -180
17 l-65 8 40 12 c52 14 272 34 296 27 32 -11 21 16 -22 53 -37 32 -102 120
-159 217 -18 31 -7 23 53 -41 41 -44 99 -97 129 -117 51 -35 201 -97 235 -97
35 0 -11 29 -97 60 -47 17 -107 48 -135 69 -67 51 -243 227 -250 252 -6 18
-25 27 -25 12z"/>
<path d="M1994 1947 c-17 -10 -4 -13 84 -15 113 -2 211 -21 270 -51 54 -28
203 -186 245 -261 62 -113 81 -201 82 -380 0 -215 -15 -263 -181 -560 -57
-103 -85 -141 -159 -215 -183 -185 -446 -316 -662 -330 -148 -9 -223 -18 -223
-28 0 -15 240 0 345 22 169 35 333 114 479 230 101 81 163 155 216 260 26 53
71 134 99 181 68 112 107 216 127 337 15 90 15 107 0 206 -30 203 -82 313
-216 448 -124 125 -193 155 -380 164 -73 3 -111 1 -126 -8z"/>
</g>
</svg>
